PathFileType	4	(X/Y/Z)	 s03c0302.trc
DataRate	CameraRate	NumFrames	NumMarkers	Units	OrigDataRate	OrigDataStartFrame	OrigNumFrames
200	200	4	52	mm	200	1501	2000
Frame#	Time	racr			lacr			c7			jug			rlel			rdr			llel			ldr			s2			lic			ric			lasi			rasi			rpsi			lpsi			rgt			lgt			rth1			rth2			rth3			rth4			rlfc			rmfc			rsh1			rsh2			rsh3			rsh4			rlmal			rmmal			rcal			rtoe			rmt5			rmt1			lth1			lth2			lth4			lth3			llfc			lmfc			lsh1			lsh2			lsh3			lsh4			llmal			lmmal			lcal			ltoe			lmt1			lmt5			SBIKE			LBIKE			RBIKE			
		X1	Y1	Z1	X2	Y2	Z2	X3	Y3	Z3	X4	Y4	Z4	X5	Y5	Z5	X6	Y6	Z6	X7	Y7	Z7	X8	Y8	Z8	X9	Y9	Z9	X10	Y10	Z10	X11	Y11	Z11	X12	Y12	Z12	X13	Y13	Z13	X14	Y14	Z14	X15	Y15	Z15	X16	Y16	Z16	X17	Y17	Z17	X18	Y18	Z18	X19	Y19	Z19	X20	Y20	Z20	X21	Y21	Z21	X22	Y22	Z22	X23	Y23	Z23	X24	Y24	Z24	X25	Y25	Z25	X26	Y26	Z26	X27	Y27	Z27	X28	Y28	Z28	X29	Y29	Z29	X30	Y30	Z30	X31	Y31	Z31	X32	Y32	Z32	X33	Y33	Z33	X34	Y34	Z34	X35	Y35	Z35	X36	Y36	Z36	X37	Y37	Z37	X38	Y38	Z38	X39	Y39	Z39	X40	Y40	Z40	X41	Y41	Z41	X42	Y42	Z42	X43	Y43	Z43	X44	Y44	Z44	X45	Y45	Z45	X46	Y46	Z46	X47	Y47	Z47	X48	Y48	Z48	X49	Y49	Z49	X50	Y50	Z50	X51	Y51	Z51	X52	Y52	Z52	
1501	7.5050	777.041810	1387.215075	-154.316907	729.182486	1392.285938	-471.279018	718.565544	1479.300956	-313.481696	679.269584	1302.183988	-300.283377	665.239738	1186.664444	30.349150	760.452126	934.557310	-35.906221	583.623157	1150.476036	-546.478981	744.506826	943.188071	-417.932745	152.894819	1321.490532	-227.990891	306.325181	1303.755303	-430.275382	339.162896	1332.272413	-62.394170	316.902236	1232.419263	-381.469006	346.660814	1252.417557	-103.321554	193.574061	1369.391955	-189.571512	187.638462	1363.139666	-270.547024	265.686660	1238.121368	-34.903520	242.500210	1206.065647	-429.284111	338.848081	1092.312713	-11.439246	404.615715	1032.748762	-10.266879	433.825172	952.637083	-3.399046	432.801670	1050.677733	-24.105281	472.310221	826.657587	-11.760897	473.069833	799.210508	-130.004989	340.359000	717.176328	5.383629	287.524319	648.832674	-13.676649	204.807037	615.823069	-22.025769	308.095068	626.918991	-37.367834	95.787918	545.350060	-53.129570	131.263540	534.546668	-131.544930	30.784521	563.567498	-95.634928	203.851648	306.074594	-112.142511	120.409852	388.371140	-38.192646	152.513355	385.362993	-150.074158	312.714031	1060.076873	-450.797704	371.564484	996.383020	-452.413739	403.671516	1013.666695	-447.808308	391.483499	909.845767	-443.738160	465.962477	799.418858	-423.156182	471.266359	786.597352	-301.996075	396.388318	639.113439	-444.175153	390.988005	555.860889	-425.716302	341.557386	480.489691	-421.340883	422.022102	549.305310	-404.853673	292.121967	364.529792	-405.859818	NaN	NaN	NaN	221.541248	324.093154	-360.287079	529.014888	278.716107	-352.871199	434.805305	289.488911	-313.179982	409.517735	271.170708	-428.570976	-213.232390	946.408369	-230.900384	-5.811368	84.100017	-435.017549	-11.393116	81.450025	-34.645997	
1502	7.5100	775.946356	1388.264521	-152.716753	731.327692	1390.199141	-469.450562	718.722896	1478.874416	-313.104771	679.339085	1302.291337	-299.060937	664.663725	1186.165545	30.505127	760.465182	934.352289	-35.934617	584.870730	1149.878661	-547.455209	744.272712	942.746375	-418.266138	153.076235	1319.394102	-227.227604	307.211957	1299.896394	-431.717209	338.837631	1331.317963	-64.122180	317.693228	1228.919769	-382.860288	346.906040	1251.298362	-105.013323	192.381203	1367.687709	-190.406270	187.723345	1360.160988	-272.344388	267.029553	1237.862196	-35.848792	242.209357	1201.612092	-430.614128	341.840835	1094.307323	-11.041196	408.745058	1035.935613	-9.405121	439.379980	956.365016	-1.658460	436.463265	1054.132258	-23.933050	480.117217	831.558235	-9.595164	480.947084	803.625116	-128.063887	347.037698	723.448232	6.960441	293.221094	655.945802	-12.586977	210.138979	624.150584	-21.152981	313.644449	633.720531	-36.190447	100.263102	555.402742	-52.778061	135.920760	544.365106	-131.460830	35.251452	574.093808	-95.212113	207.901803	316.118043	-112.397235	124.698211	398.554860	-38.110011	156.854970	395.675995	-149.956454	309.863556	1054.232340	-450.300750	367.147338	989.092839	-451.603175	399.725340	1005.704267	-447.488348	385.052211	902.211786	-442.058438	457.940477	790.974386	-421.130033	464.225869	778.677226	-300.668166	389.657007	630.476999	-442.958609	385.049995	546.171915	-422.815144	336.663988	471.121881	-420.691054	416.064214	539.166621	-401.743395	288.583658	354.389380	-405.026637	NaN	NaN	NaN	218.133983	314.740483	-360.371664	525.305242	267.332008	-352.948292	431.140075	278.590439	-312.668686	405.856604	260.594530	-428.511824	-213.225070	946.378087	-231.100386	-5.799544	84.036067	-435.041505	-11.144679	81.163544	-34.742226	
1503	7.5150	774.835053	1389.125881	-150.944280	733.404837	1388.688874	-468.201565	718.743702	1478.480653	-312.590099	679.439233	1302.423277	-297.672269	664.242448	1185.691321	30.604158	760.531984	934.383700	-36.717067	586.438546	1149.104499	-548.056939	743.955441	942.168625	-418.585434	152.420793	1316.999759	-232.154180	308.178647	1296.098724	-433.143784	338.407350	1330.350696	-65.899615	318.490494	1225.370616	-384.260775	346.441237	1250.064091	-107.197857	192.094086	1365.293377	-192.710933	187.500769	1358.010181	-277.185499	268.294029	1237.471621	-36.926763	241.866435	1197.080424	-431.237568	344.715369	1096.635297	-10.699976	412.705565	1039.535099	-8.731110	444.909113	960.555875	-0.157016	440.022876	1057.683218	-24.632869	487.932317	836.945949	-7.569596	489.140270	808.440493	-126.327390	353.787082	729.794527	8.367278	298.117078	662.493115	-12.457695	215.690970	632.378503	-20.287083	319.390520	640.997732	-34.746670	104.908986	565.021164	-52.555211	140.853807	554.110093	-131.384451	39.799310	583.580651	-95.425618	212.777281	326.020489	-112.513368	129.645756	408.441289	-37.965650	160.103190	404.940889	-151.407433	307.020955	1048.218278	-449.914262	362.662514	981.701844	-451.321062	395.700217	997.619264	-447.217742	378.622366	894.520600	-440.244024	450.030087	782.819786	-419.243971	455.801190	770.877106	-298.680754	382.545139	622.052214	-441.863559	378.561695	538.589370	-423.868412	331.215481	462.083362	-420.035274	410.073874	530.822840	-401.401137	284.559005	344.899845	-404.868548	NaN	NaN	NaN	214.178318	305.921611	-360.388312	521.085587	255.993019	-352.964373	426.421343	267.547657	-311.374284	401.496427	250.391217	-428.588968	-213.176874	946.355025	-231.275892	-5.791707	83.990628	-435.084334	-11.390040	81.430616	-34.699508	
1504	7.5200	773.414031	1390.308613	-149.178081	735.473546	1387.276951	-466.544486	718.651613	1478.237594	-311.972315	679.571785	1302.580506	-296.114483	663.171445	1185.388949	30.966116	760.470720	934.388364	-36.649351	587.937188	1148.631818	-549.173202	743.659372	939.962554	-414.292429	151.737959	1314.360686	-236.088654	309.157019	1292.230673	-434.666716	337.727541	1329.280987	-67.808959	319.439279	1221.857431	-385.832368	346.289520	1248.938800	-108.925033	191.849918	1362.770630	-195.109748	187.590030	1354.872760	-278.990221	269.403984	1237.042955	-38.140867	241.673954	1192.443166	-431.904368	347.354075	1098.992871	-10.529718	416.612110	1043.349711	-8.250892	450.485568	965.138540	1.049670	443.411038	1061.895392	-24.772998	495.676301	842.668204	-5.753638	497.431967	813.347446	-124.533851	360.481826	736.187305	9.616328	304.245675	669.710022	-11.546566	221.561374	640.352678	-20.206712	325.300302	648.037567	-33.934596	110.031060	574.548377	-52.425342	146.096824	563.664329	-131.380726	44.671766	592.919675	-95.447708	218.252467	336.056399	-112.653602	134.946560	418.185343	-38.054837	163.916427	413.917629	-152.484462	304.104916	1041.967400	-449.580766	358.180031	974.219550	-450.737556	391.642975	989.426209	-446.990832	372.353474	886.797651	-438.471847	442.398310	774.623244	-416.990211	447.670367	763.135635	-297.297530	374.999592	614.014882	-441.104296	371.852186	530.496998	-423.228642	325.303798	453.483259	-419.456907	403.699043	522.835962	-401.252421	279.922565	335.801107	-404.714191	NaN	NaN	NaN	209.698867	297.707160	-360.435204	516.241051	245.093855	-352.817570	421.518409	257.160057	-310.779459	396.582536	240.543199	-428.564998	-213.150450	946.328895	-231.417832	-5.783952	83.960164	-435.096798	-11.375066	81.420472	-34.703594	
